<?xml version="1.0" encoding="UTF-8" standalone="no"?>
<!-- Created with Inkscape (http://www.inkscape.org/) -->

<svg
   xmlns:dc="http://purl.org/dc/elements/1.1/"
   xmlns:cc="http://creativecommons.org/ns#"
   xmlns:rdf="http://www.w3.org/1999/02/22-rdf-syntax-ns#"
   xmlns:svg="http://www.w3.org/2000/svg"
   xmlns="http://www.w3.org/2000/svg"
   xmlns:sodipodi="http://sodipodi.sourceforge.net/DTD/sodipodi-0.dtd"
   xmlns:inkscape="http://www.inkscape.org/namespaces/inkscape"
   id="Layer_3"
   xml:space="preserve"
   height="550.45"
   width="627.77"
   version="1.0"
   viewBox="0 0 627.769 550.45"
   inkscape:version="0.91 r13725"
   sodipodi:docname="Warning.svg"><metadata
     id="metadata11"><rdf:RDF><cc:Work
         rdf:about=""><dc:format>image/svg+xml</dc:format><dc:type
           rdf:resource="http://purl.org/dc/dcmitype/StillImage" /><dc:title /></cc:Work></rdf:RDF></metadata><defs
     id="defs9" /><sodipodi:namedview
     pagecolor="#ffffff"
     bordercolor="#666666"
     borderopacity="1"
     objecttolerance="10"
     gridtolerance="10"
     guidetolerance="10"
     inkscape:pageopacity="0"
     inkscape:pageshadow="2"
     inkscape:window-width="1171"
     inkscape:window-height="721"
     id="namedview7"
     showgrid="false"
     inkscape:zoom="0.42874011"
     inkscape:cx="-34.81108"
     inkscape:cy="-4.6648281"
     inkscape:window-x="1805"
     inkscape:window-y="181"
     inkscape:window-maximized="0"
     inkscape:current-layer="Layer_3" /><path
     id="path2231"
     d="M 592.09026,485.51025 333.58237,44.959134 c -4.05248,-6.907678 -11.53756,-11.162619 -19.64252,-11.162619 -8.10498,0 -15.59006,4.254941 -19.64254,11.158978 L 35.780153,485.50661 c -4.04786,6.9004 -4.04786,15.4121 0.0028,22.32159 4.051561,6.90041 11.539408,11.1517 19.642529,11.1517 l 517.025058,0 c 8.10495,0 15.59928,-4.25129 19.64253,-11.1517 4.05249,-6.90949 4.05249,-15.42119 0,-22.32159 z"
     style="fill:#000000;fill-opacity:0;stroke:#000000;stroke-width:65.43582916;stroke-miterlimit:4;stroke-dasharray:none;stroke-opacity:1"
     inkscape:connector-curvature="0" /><path
     id="path2235"
     d="m291.87 343.36c1.21 11.49 3.21 20.04 6.02 25.66 2.81 5.63 7.82 8.43 15.04 8.43h2.01c7.22 0 12.24-2.8 15.04-8.43 2.81-5.62 4.82-14.17 6.02-25.66l6.42-88.75c1.21-17.3 1.81-29.71 1.81-37.25 0-10.25-2.91-18.25-8.73-23.99-5.53-5.46-13.38-8.59-21.56-8.59s-16.04 3.13-21.57 8.59c-5.81 5.74-8.72 13.74-8.72 23.99 0 7.54 0.6 19.95 1.8 37.25l6.42 88.75z" /><circle
     id="circle2237"
     cy="430.79"
     cx="313.94"
     r="30.747" /></svg>